<svg xmlns="http://www.w3.org/2000/svg" viewBox="0 0 1200 700" role="img" aria-label="Synthetic construction site monitoring mission area">
  <defs>
    <linearGradient id="ground" x1="0" y1="0" x2="1" y2="1">
      <stop offset="0" stop-color="#53635d"/>
      <stop offset="0.55" stop-color="#7b7966"/>
      <stop offset="1" stop-color="#34444a"/>
    </linearGradient>
    <pattern id="field" width="90" height="90" patternUnits="userSpaceOnUse">
      <path d="M90 0H0V90" fill="none" stroke="#ffffff" stroke-width="2" stroke-opacity="0.08"/>
    </pattern>
  </defs>
  <rect width="1200" height="700" fill="url(#ground)"/>
  <rect width="1200" height="700" fill="url(#field)"/>
  <g opacity="0.78">
    <path d="M-40 245 C215 210 410 238 620 188 C842 134 980 138 1250 95" fill="none" stroke="#d9d1bb" stroke-width="54"/>
    <path d="M-60 248 C220 214 414 240 626 188 C845 134 975 140 1260 94" fill="none" stroke="#47545a" stroke-width="34"/>
    <path d="M105 740 L340 -40" fill="none" stroke="#d9d1bb" stroke-width="50"/>
    <path d="M110 740 L345 -40" fill="none" stroke="#424e55" stroke-width="30"/>
  </g>
  <g opacity="0.5" fill="#29373c">
    <rect x="56" y="62" width="205" height="112" transform="rotate(-5 56 62)"/>
    <rect x="850" y="250" width="236" height="132" transform="rotate(-8 850 250)"/>
    <rect x="720" y="470" width="270" height="124" transform="rotate(9 720 470)"/>
  </g>
  <g transform="rotate(-7 615 375)">
    <rect x="430" y="280" width="360" height="230" rx="10" fill="#b8915d" opacity="0.9"/>
    <rect x="458" y="306" width="132" height="74" fill="#d2b681" opacity="0.95"/>
    <rect x="612" y="304" width="142" height="158" fill="#8a6c45" opacity="0.92"/>
    <rect x="474" y="404" width="116" height="64" fill="#c99a55" opacity="0.95"/>
    <path d="M430 280 H790 V510 H430 Z" fill="none" stroke="#ffe3a7" stroke-width="5" stroke-dasharray="14 12"/>
    <path d="M392 534 L834 534" stroke="#f6d488" stroke-width="8" stroke-linecap="round"/>
    <path d="M392 534 L472 484" stroke="#f6d488" stroke-width="6" stroke-linecap="round"/>
    <path d="M834 534 L744 482" stroke="#f6d488" stroke-width="6" stroke-linecap="round"/>
  </g>
  <g fill="#f0c24d" opacity="0.88">
    <rect x="655" y="246" width="58" height="24" rx="4" transform="rotate(-28 655 246)"/>
    <rect x="688" y="226" width="108" height="12" rx="4" transform="rotate(-28 688 226)"/>
    <rect x="520" y="540" width="54" height="22" rx="4" transform="rotate(12 520 540)"/>
  </g>
  <g fill="none" stroke="#eaf7ff" stroke-opacity="0.35">
    <path d="M435 280 L790 510"/>
    <path d="M790 280 L430 510"/>
  </g>
  <rect x="0" y="0" width="1200" height="700" fill="none" stroke="#ffffff" stroke-opacity="0.14" stroke-width="2"/>
</svg>
